<svg xmlns="http://www.w3.org/2000/svg" viewBox="0 0 512 512">
  <rect x="0" y="0" width="512" height="512" rx="100" fill="#2b3e50"/>
  
  <path d="M0 256 H512 M256 0 V512" stroke="#3a5266" stroke-width="2" opacity="0.3"/>
  
  <circle cx="256" cy="256" r="160" fill="#ecf0f1"/>
  <path d="M256 60 L280 110 H232 Z" fill="#95a5a6" transform="rotate(0 256 256)"/>
  <path d="M256 60 L280 110 H232 Z" fill="#95a5a6" transform="rotate(45 256 256)"/>
  <path d="M256 60 L280 110 H232 Z" fill="#95a5a6" transform="rotate(90 256 256)"/>
  <path d="M256 60 L280 110 H232 Z" fill="#95a5a6" transform="rotate(135 256 256)"/>
  <path d="M256 60 L280 110 H232 Z" fill="#95a5a6" transform="rotate(180 256 256)"/>
  <path d="M256 60 L280 110 H232 Z" fill="#95a5a6" transform="rotate(225 256 256)"/>
  <path d="M256 60 L280 110 H232 Z" fill="#95a5a6" transform="rotate(270 256 256)"/>
  <path d="M256 60 L280 110 H232 Z" fill="#95a5a6" transform="rotate(315 256 256)"/>
  
  <circle cx="256" cy="256" r="130" fill="#f05032"/>
  
  <path d="M366 256 A 110 110 0 0 0 256 146" stroke="white" stroke-width="24" fill="none" stroke-linecap="round"/>
  <line x1="256" y1="146" x2="256" y2="366" stroke="white" stroke-width="24" stroke-linecap="round"/>
  
  <circle cx="256" cy="366" r="18" fill="white"/>
  <circle cx="256" cy="146" r="18" fill="white"/>
  <circle cx="366" cy="256" r="18" fill="white"/>

  <rect x="100" y="340" width="140" height="90" rx="10" fill="#34495e" stroke="white" stroke-width="4"/>
  
  <line x1="120" y1="365" x2="220" y2="365" stroke="#7f8c8d" stroke-width="6" stroke-linecap="round"/>
  <circle cx="150" cy="365" r="10" fill="#3498db"/>
  
  <line x1="120" y1="395" x2="220" y2="395" stroke="#7f8c8d" stroke-width="6" stroke-linecap="round"/>
  <circle cx="190" cy="395" r="10" fill="#2ecc71"/>

</svg>
